<?xml version="1.0" encoding="utf-8" ?>
<!-- Generator: Assembly 1.0 - http://assemblyapp.co -->
<svg version="1.1" xmlns="http://www.w3.org/2000/svg" xmlns:xlink="http://www.w3.org/1999/xlink" width="300" height="300" viewBox="0 0 300 300">
  <g id="widget" transform="matrix(1,0,0,1,150,150)">
    <path d="M-56.364,-25.7204 L-56.364,-25.7204 C-74.2431,-25.7204 -88.7167,-40.1939 -88.7167,-58.0731 L-88.7167,-58.0731 C-88.7167,-75.9522 -74.2431,-90.4257 -56.364,-90.4257 L-56.364,-90.4257 C-38.4849,-90.4257 -24.0113,-75.9522 -24.0113,-58.0731 L-24.0113,-58.0731 C-24.0113,-40.1939 -38.4849,-25.7204 -56.364,-25.7204 Z" fill="#8DD97F" fill-opacity="1" />
    <path d="M-56.364,89.8859 L-56.364,89.8859 C-74.2431,89.8859 -88.7167,75.4123 -88.7167,57.5332 L-88.7167,57.5332 C-88.7167,39.6541 -74.2431,25.1805 -56.364,25.1805 L-56.364,25.1805 C-38.4849,25.1805 -24.0113,39.6541 -24.0113,57.5332 L-24.0113,57.5332 C-24.0113,75.4123 -38.4849,89.8859 -56.364,89.8859 Z" fill="#BC5757" fill-opacity="1" />
    <path d="M50.1351,-0.269979 L14.0728,-0.269968 C14.0728,99.262 94.8525,180.042 194.384,180.042 L194.384,143.979 C114.687,143.979 50.1351,79.4277 50.1351,-0.269979 Z" fill="#BC5757" fill-opacity="1" />
    <path d="M194.384,-144.519 L194.384,-180.581 C94.8525,-180.581 14.0728,-99.8018 14.0728,-0.269831 L50.1352,-0.269831 C50.1352,-79.9675 114.687,-144.519 194.384,-144.519 Z" fill="#8DD97F" fill-opacity="1" />
    <path d="M153.906,282.778 L43.2363,172.108 L153.906,61.4383 L264.576,172.108 L153.906,282.778 Z" fill="#eeeeee" fill-opacity="1" />
    <path d="M43.2363,-182.385 L153.906,-293.054 L264.576,-182.385 L153.906,-71.715 L43.2363,-182.385 Z" fill="#eeeeee" fill-opacity="1" />
  </g>
</svg>
