<?xml version="1.0" encoding="utf-8"?>
<svg version="1.1" id="Capa_1" xmlns="http://www.w3.org/2000/svg" xmlns:xlink="http://www.w3.org/1999/xlink" x="0px" y="0px"
  fill="#bc5757" width="510px" height="510px" viewBox="0 0 510 510" style="enable-background:new 0 0 510 510;" xml:space="preserve">
<path d="M255,0C114.8,0,0,114.8,0,255s114.8,255,255,255s255-114.8,255-255S395.2,0,255,0z M344.2,153c20.4,0,38.2,17.8,38.2,38.2
  c0,20.4-17.8,38.2-38.2,38.2c-20.4,0-38.2-17.9-38.2-38.2C306,170.8,323.9,153,344.2,153z M165.8,153c20.4,0,38.2,17.8,38.2,38.2
  c0,20.4-17.8,38.2-38.2,38.2c-20.4,0-38.2-17.9-38.2-38.2C127.5,170.8,145.4,153,165.8,153z M388.4,411.3
  c-19.8-57-73.4-95.3-133.4-95.3s-113.5,38.3-133.4,95.3l-18.9-6.6C125.4,339.7,186.6,296,255,296c68.4,0,129.6,43.7,152.2,108.7
  L388.4,411.3z"/>
</svg>
