<?xml version="1.0" encoding="utf-8" ?>
<svg version="1.1" width="1000" height="1000" viewBox="0 0 1000 1000" xmlns="http://www.w3.org/2000/svg">
 <g>
   <ellipse fill="#8dd97f" stroke-width="null" stroke-opacity="null" cx="500" cy="500" id="svg_6" rx="500.000011" ry="500" stroke="null"/>
   <path transform="rotate(180 490.75,725.4000244140625) " d="m490.799988,650.000021c-107.1,0 -197.1,61.4 -240.8,150.8l481.5,0c-43.6,-89.4 -133.6,-150.8 -240.7,-150.8z" id="svg_2" fill="#ffffff"/>
   <path d="m673.5,447c41.7,0 73.5,-31.8 73.5,-73.5s-31.8,-73.5 -73.5,-73.5s-73.5,31.8 -73.5,73.5s31.8,73.5 73.5,73.5z" id="svg_4" fill="#ffffff"/>
   <path d="m323.5,447c41.7,0 73.5,-31.8 73.5,-73.5s-31.8,-73.5 -73.5,-73.5c-41.7,0 -73.5,31.8 -73.5,73.5s31.8,73.5 73.5,73.5z" id="svg_5" fill="#ffffff"/>
 </g>
</svg>
