<?xml version="1.0" standalone="no"?>
<!DOCTYPE svg PUBLIC "-//W3C//DTD SVG 20010904//EN"
 "http://www.w3.org/TR/2001/REC-SVG-20010904/DTD/svg10.dtd">
<svg version="1.0" xmlns="http://www.w3.org/2000/svg"
 width="16.000000pt" height="16.000000pt" viewBox="0 0 16.000000 16.000000"
 preserveAspectRatio="xMidYMid meet">
<metadata>
Created by potrace 1.11, written by Peter Selinger 2001-2013
</metadata>
<g transform="translate(0.000000,16.000000) scale(0.002286,-0.002286)"
fill="#000000" stroke="none">
<path d="M3397 6228 c-163 -8 -261 -22 -377 -53 -289 -77 -532 -216 -740 -425
-489 -488 -616 -1217 -324 -1848 146 -317 421 -599 741 -761 l59 -29 251 461
c138 254 253 468 255 475 2 8 -16 21 -43 31 -121 47 -224 144 -288 271 -176
352 56 765 452 806 34 3 161 7 282 8 l220 1 288 529 c158 290 287 529 285 531
-7 7 -936 9 -1061 3z"/>
<path d="M4705 6183 c8 -27 79 -267 157 -535 l143 -488 98 0 97 0 0 535 0 535
-255 0 -254 0 14 -47z"/>
<path d="M4238 3378 l-257 -472 57 -36 c123 -78 217 -214 247 -355 18 -88 19
-142 0 -230 -45 -215 -217 -386 -434 -431 -48 -10 -141 -16 -269 -17 l-195 -2
-288 -529 c-159 -291 -289 -533 -289 -537 0 -11 714 -16 910 -7 271 12 397 35
587 103 211 77 411 205 578 370 263 260 420 566 476 930 16 106 16 359 0 465
-76 496 -349 905 -782 1173 -42 26 -78 47 -80 47 -2 0 -120 -213 -261 -472z"/>
<path d="M1900 1300 l0 -540 346 0 c273 0 345 3 342 13 -2 6 -74 249 -159 539
l-154 528 -187 0 -188 0 0 -540z"/>
</g>
</svg>
