<?xml version="1.0" standalone="no"?>
<!DOCTYPE svg PUBLIC "-//W3C//DTD SVG 20010904//EN"
 "http://www.w3.org/TR/2001/REC-SVG-20010904/DTD/svg10.dtd">
<svg version="1.0" xmlns="http://www.w3.org/2000/svg"
 width="16.000000pt" height="16.000000pt" viewBox="0 0 16.000000 16.000000"
 preserveAspectRatio="xMidYMid meet">
<metadata>
Created by potrace 1.11, written by Peter Selinger 2001-2013
</metadata>
<g transform="translate(0.000000,16.000000) scale(0.001600,-0.001600)"
fill="#000000" stroke="none">
<path d="M4790 8900 c-290 -8 -450 -35 -691 -113 -585 -192 -1085 -631 -1359
-1192 -325 -665 -317 -1432 20 -2094 175 -344 441 -646 760 -863 150 -102 190
-123 205 -107 30 32 876 1272 871 1277 -3 2 -31 15 -61 28 -99 40 -168 87
-255 174 -134 135 -210 293 -229 475 -28 277 87 545 303 709 82 62 161 104
261 137 69 23 77 24 570 27 l501 3 524 763 c289 420 527 762 530 759 3 -2 68
-345 146 -761 l140 -757 175 0 174 0 0 58 c-1 31 -2 379 -3 772 l-2 715 -1172
-2 c-645 -1 -1279 -5 -1408 -8z"/>
<path d="M5900 4868 c-243 -353 -444 -647 -446 -653 -3 -6 18 -17 47 -24 77
-20 215 -93 286 -151 300 -244 378 -681 181 -1014 -81 -136 -233 -270 -375
-330 -141 -59 -144 -59 -718 -65 l-530 -6 -526 -765 -526 -765 1041 -3 c713
-2 1080 0 1166 8 348 31 717 154 1010 335 577 358 968 939 1081 1610 26 157
36 450 20 610 -49 475 -231 910 -535 1274 -86 104 -278 287 -386 367 -90 67
-323 214 -341 214 -4 0 -206 -289 -449 -642z"/>
<path d="M2650 1860 l0 -770 299 0 300 0 -6 33 c-3 17 -67 363 -142 767 l-136
735 -157 3 -158 3 0 -771z"/>
</g>
</svg>
